<svg width="164" height="181" viewBox="0 0 164 181" fill="none" xmlns="http://www.w3.org/2000/svg">
<path d="M31.9482 145.508C29.5911 145.508 29.5911 141.959 31.9482 141.959H110.967C111.22 136.707 112.816 131.022 114.919 125.843C114.629 125.336 114.629 124.684 114.956 124.14L137.04 85.9322V67.4257C137.04 61.8846 132.58 57.43 127.031 57.43H104.222L108.791 61.8846C111.438 64.4922 110.64 68.9106 107.268 70.4316L101.103 73.2203C100.414 73.5462 100.015 74.1981 100.124 74.9587L100.776 81.6949L108.682 100.745C109.262 102.157 107.884 103.642 106.361 103.063L97.4765 99.7306L93.6688 107.916C93.0161 109.292 90.9853 109.328 90.3688 107.771L83.0073 90.0247C82.1007 91.3285 81.4117 92.6322 79.9612 93.3928C77.6403 94.6241 74.703 93.936 73.1436 91.6906L71.9832 90.0247L64.6217 107.771C64.0052 109.328 61.9745 109.292 61.358 107.916L57.5866 99.7306L48.702 103.063C47.2152 103.642 45.8009 102.157 46.4174 100.745L54.2866 81.6949L54.9393 74.9949C54.9756 74.6327 54.9031 74.2706 54.7217 73.9446C54.5404 73.6187 54.2866 73.4014 53.9239 73.2565L47.7591 70.4679C44.3866 68.9468 43.5888 64.5284 46.2723 61.9208L50.8053 57.4662H21.6494V145.762C21.6494 146.739 20.8516 147.536 19.8724 147.536H11.7857C7.43403 147.536 3.55383 149.637 3.55383 154.128C3.55383 155.975 4.56921 157.532 6.23733 158.655C8.23183 159.995 11.0241 160.755 14.1428 160.755H115.246H126.596C130.368 160.791 134.248 161.805 137.004 163.978V117.404L128.554 131.999C128.228 132.543 127.684 132.869 127.068 132.869C123.296 137.722 118.509 142.466 113.505 145.255C113.106 145.472 112.707 145.472 112.308 145.472H31.9482V145.508ZM31.9482 136.092C29.5911 136.092 29.5911 132.543 31.9482 132.543H101.538C103.859 132.543 103.859 136.092 101.538 136.092H31.9482ZM31.9482 126.676C29.5911 126.676 29.5911 123.126 31.9482 123.126H101.538C103.859 123.126 103.859 126.676 101.538 126.676H31.9482ZM67.4865 61.8122C66.3261 59.7841 69.3722 58.0095 70.5326 60.0376L73.5063 65.1441L84.7842 53.8808C86.4524 52.2149 88.9545 54.75 87.2864 56.3797L74.3766 69.3089C73.5788 70.1419 72.1645 69.9608 71.5843 68.9468L67.4865 61.8122ZM77.4953 44.537C86.9601 44.537 94.6117 52.1786 94.6117 61.6311C94.6117 71.0835 86.9601 78.7252 77.4953 78.7252C68.0305 78.7252 60.3788 71.0835 60.3788 61.6311C60.4151 52.1786 68.0667 44.537 77.4953 44.537ZM87.1051 52.0338C81.8106 46.7462 73.2162 46.7462 67.9217 52.0338C62.6272 57.3213 62.6272 65.9046 67.9217 71.1922C73.2162 76.4798 81.8106 76.4798 87.1051 71.1922C92.3996 65.9046 92.3996 57.3213 87.1051 52.0338ZM79.1996 1.2223L81.5205 8.39313H89.0633C90.7677 8.39313 91.493 10.6023 90.115 11.5802L83.9864 15.9986L86.3436 23.1694C86.8513 24.7629 85.0018 26.2478 83.515 25.0526L77.5315 20.6705L71.4392 25.1251C70.0612 26.1391 68.1755 24.7629 68.7195 23.1694L71.0766 15.9986L64.9118 11.5802C63.5338 10.5661 64.1865 8.32069 66.0722 8.39313H73.5063L75.8271 1.2223C76.3348 -0.407433 78.692 -0.407433 79.1996 1.2223ZM78.5469 10.711L77.5315 7.52394L76.4799 10.711C76.2623 11.4353 75.5733 11.9423 74.8118 11.9423H71.4755C75.7546 15.0207 75.4282 14.0791 73.7964 19.0769C78.0392 15.9623 77.0238 15.9623 81.3029 19.0769C79.6711 14.0791 79.3447 15.0207 83.6238 11.9423H80.3601C79.526 11.9785 78.8007 11.4715 78.5469 10.711ZM120.214 22.5537L122.535 29.7245L130.077 29.6883C131.782 29.6883 132.507 31.8975 131.129 32.8753L125.001 37.2937L127.358 44.4646C127.865 46.0943 126.016 47.5429 124.529 46.3478L118.546 42.0019L112.453 46.4565C111.075 47.4705 109.19 46.0943 109.734 44.4646L112.091 37.2937L105.926 32.9116C104.548 31.9337 105.201 29.6521 107.086 29.7245L114.52 29.7607L116.841 22.5899C117.385 20.924 119.706 20.924 120.214 22.5537ZM119.561 32.0424L118.546 28.8553L117.53 32.0424C117.313 32.7667 116.624 33.2737 115.862 33.2737H112.453C116.732 36.3521 116.406 35.4105 114.774 40.4083C119.017 37.2937 118.038 37.2937 122.281 40.4083C120.649 35.4105 120.323 36.3521 124.602 33.2737H121.338C120.54 33.3099 119.815 32.8029 119.561 32.0424ZM38.1855 22.5537L40.5064 29.7245L48.0492 29.6883C49.7536 29.6883 50.4789 31.8975 49.1009 32.8753L42.9723 37.2937L45.3295 44.4646C45.8372 46.0943 43.9877 47.5429 42.5009 46.3478L36.5174 42.0019L30.4251 46.4565C29.0471 47.4705 27.1614 46.0943 27.7054 44.4646L30.0625 37.2937L23.8977 32.9116C22.5197 31.9337 23.1724 29.6521 25.0581 29.7245L32.4922 29.7607L34.813 22.5899C35.3207 20.924 37.6416 20.924 38.1855 22.5537ZM37.5328 32.0424L36.5174 28.8553L35.502 32.0424C35.2845 32.7667 34.5954 33.2737 33.8339 33.2737H30.4614C34.7405 36.3521 34.4141 35.4105 32.7823 40.4083C37.0251 37.2937 36.046 37.2937 40.2888 40.4083C38.657 35.4105 38.3306 36.3521 42.6097 33.2737H39.346C38.5119 33.3099 37.7504 32.8029 37.5328 32.0424ZM78.9458 89.6987L82.7535 84.1214C84.0227 82.2382 86.3073 81.4052 88.5194 82.0209L95.0106 83.8317C96.171 84.1576 97.3314 83.2522 97.1864 82.0209L96.5336 75.2846C96.3161 73.0392 97.5128 70.9387 99.5798 69.9971L105.817 67.1722C106.796 66.7376 107.159 65.2889 106.252 64.4197L101.429 59.6754C99.7611 58.0457 99.3985 55.6916 100.378 53.6635L103.315 47.5792C103.823 46.4927 103.134 45.2251 101.901 45.1165L95.1556 44.6094C92.871 44.4283 91.0216 42.871 90.4413 40.6618L88.7732 34.1429C88.4831 32.984 87.1051 32.4407 86.0897 33.1651L80.5777 37.0764C78.7282 38.4164 76.3348 38.4164 74.4491 37.0764L68.9371 33.1289C67.9217 32.4045 66.5437 32.9478 66.2536 34.1067L64.5854 40.6256C64.0052 42.8348 62.1558 44.3921 59.8712 44.5732L53.1261 45.0802C51.8932 45.1889 51.1679 46.4565 51.7119 47.5429L54.6492 53.6273C55.6283 55.6554 55.2294 58.0457 53.5976 59.6392L48.7745 64.3835C47.9404 65.2165 48.1218 66.6289 49.2822 67.1722L55.447 69.9608C56.4624 70.4316 57.2964 71.1922 57.8404 72.1338C58.3844 73.0754 58.6382 74.1619 58.4931 75.2846L57.8404 82.1295C57.8041 83.3247 58.9283 84.1576 60.0162 83.8317L66.5074 82.0209C68.7195 81.4052 70.9678 82.2382 72.2733 84.1214L76.1172 89.6987C76.77 90.7128 78.2568 90.6766 78.9458 89.6987ZM85.6908 86.1133L85.4007 86.5117L92.1095 102.737L94.8655 96.7247C95.2281 95.8917 96.2073 95.4933 97.0776 95.8193L103.75 98.3182L98.782 86.2582C97.4402 87.3447 95.7358 87.7068 94.0677 87.236L87.5403 85.4252C86.8513 85.2441 86.126 85.4976 85.6908 86.1133ZM69.6261 86.5117C69.1546 85.7874 68.6107 85.0992 67.4502 85.4252L60.9591 87.236C59.2909 87.7068 57.5866 87.3447 56.2448 86.2582L51.2404 98.3182L57.9129 95.8193C58.7833 95.4933 59.7624 95.8917 60.1613 96.7247L62.9173 102.737L69.6261 86.5117ZM50.8053 53.8446L48.5207 49.064C46.9251 45.7321 49.1734 41.8208 52.8723 41.5673L59.6173 41.0602C60.3789 40.9878 60.9591 40.517 61.1404 39.7927L62.8448 33.2375C63.7876 29.6521 67.9942 28.131 71.0041 30.2678L76.5161 34.1791C77.1326 34.6137 77.9304 34.6137 78.5106 34.1791L84.0227 30.2678C87.0326 28.131 91.2392 29.6159 92.182 33.2375L93.8501 39.7927C94.0315 40.517 94.6479 41.024 95.3732 41.0602L102.118 41.5673C105.817 41.857 108.065 45.7321 106.47 49.064L104.185 53.8446H126.995C134.502 53.8446 140.558 59.9289 140.558 67.3895V79.7755L147.81 67.2808C148.282 66.4116 149.37 66.1581 150.24 66.6289L151.074 67.0997L154.882 60.5084C155.389 59.6392 156.477 59.3495 157.384 59.9289L163.114 63.2246C163.984 63.7316 164.238 64.8181 163.766 65.6511L159.959 72.2425L160.793 72.7133C161.663 73.2203 161.953 74.3068 161.373 75.2122L140.558 111.211V170.859C140.558 174.046 138.926 176.618 136.133 178.392C133.522 180.058 129.896 181 125.726 181H115.209C114.23 181 113.432 180.203 113.432 179.225V164.232H14.1428C7.54282 164.232 0 160.936 0 154.055V47.217C0 40.7343 5.43954 37.0764 11.7857 37.0764H19.8724C20.8516 37.0764 21.6494 37.8732 21.6494 38.851V53.8446H50.8053ZM156.659 74.4517L149.986 70.6127L118.908 124.394L126.415 128.704L157.493 74.9225L156.659 74.4517ZM159.814 65.4338L157.058 63.8403L154.12 68.8743L156.876 70.4679L159.814 65.4338ZM115.499 135.512C115.101 137.215 114.81 138.844 114.629 140.365C117.965 137.939 121.12 134.679 123.84 131.275L117.893 127.834C116.877 130.514 116.043 133.086 115.499 135.512ZM18.0593 55.6554V40.6618H11.7857C7.43403 40.6618 3.55383 42.7624 3.55383 47.2532V146.595C5.65712 144.929 8.52194 143.987 11.7857 143.987H18.0593V55.6554ZM137.004 170.932C137.004 166.332 131.202 164.522 127.394 164.304L126.415 164.268H116.986V177.487H125.726C129.207 177.487 132.181 176.763 134.211 175.459C135.988 174.372 137.004 172.815 137.004 170.932Z" fill="#175c3b"/>
</svg>
