<svg width="81" height="80" viewBox="0 0 81 80" fill="none" xmlns="http://www.w3.org/2000/svg">
<path d="M73.6295 13.4701C73.6295 9.71706 70.5765 6.66406 66.8245 6.66406C63.0725 6.66406 60.0195 9.71706 60.0195 13.4701C60.0195 17.2221 63.0725 20.2751 66.8245 20.2751C70.5765 20.2751 73.6295 17.2221 73.6295 13.4701ZM66.8245 18.2741C64.1755 18.2741 62.0195 16.1191 62.0195 13.4691C62.0195 10.8191 64.1755 8.66306 66.8245 8.66306C69.4735 8.66306 71.6295 10.8191 71.6295 13.4691C71.6295 16.1191 69.4745 18.2741 66.8245 18.2741Z" fill="#175c3b"/>
<path d="M79 77.914H75.203V31C75.203 30.494 74.826 30.068 74.324 30.008L50.446 27.094C50.158 27.052 49.876 27.148 49.662 27.337C49.448 27.527 49.325 27.8 49.325 28.086V35.326L36.088 37.502C35.605 37.581 35.25 37.999 35.25 38.488V54.974H31.041V1C31.041 0.447 30.593 0 30.041 0H6.163C5.611 0 5.163 0.447 5.163 1V77.914H1C0.448 77.914 0 78.361 0 78.914C0 79.467 0.448 79.914 1 79.914H79C79.552 79.914 80 79.467 80 78.914C80 78.361 79.552 77.914 79 77.914ZM51.325 29.216L73.203 31.886V77.914H65.875V73.792C67.849 73.335 69.329 71.571 69.329 69.46C69.329 67.004 67.331 65.006 64.875 65.006C62.419 65.006 60.421 67.004 60.421 69.46C60.421 71.571 61.901 73.336 63.875 73.792V77.914H58.098V35.061C58.098 34.767 57.969 34.489 57.745 34.298C57.522 34.109 57.224 34.023 56.936 34.074L51.326 34.996L51.325 29.216ZM64.875 71.915C63.522 71.915 62.421 70.813 62.421 69.46C62.421 68.107 63.522 67.006 64.875 67.006C66.228 67.006 67.329 68.107 67.329 69.46C67.329 70.813 66.228 71.915 64.875 71.915ZM56.098 36.238V77.914H51.546V72.497C51.546 69.81 49.36 67.625 46.674 67.625C43.988 67.625 41.802 69.811 41.802 72.497V77.914H37.25V74.543C39.192 74.046 40.639 72.297 40.639 70.201C40.639 68.639 39.837 67.263 38.625 66.457C39.471 65.745 40.02 64.692 40.02 63.503C40.02 61.752 38.846 60.286 37.25 59.806V39.337L56.098 36.238ZM49.546 77.914H43.802V72.497C43.802 70.913 45.091 69.625 46.674 69.625C48.257 69.625 49.546 70.913 49.546 72.497V77.914ZM36.143 61.625C37.178 61.625 38.02 62.468 38.02 63.503C38.02 64.538 37.178 65.381 36.143 65.381C35.107 65.381 34.265 64.538 34.265 63.503C34.265 62.468 35.107 61.625 36.143 61.625ZM36.143 67.704C37.519 67.704 38.639 68.824 38.639 70.201C38.639 71.577 37.519 72.697 36.143 72.697C34.767 72.697 33.646 71.577 33.646 70.201C33.646 68.824 34.766 67.704 36.143 67.704ZM35.25 59.739C33.543 60.145 32.265 61.673 32.265 63.503C32.265 64.693 32.815 65.745 33.66 66.457C32.448 67.264 31.646 68.639 31.646 70.201C31.646 72.375 33.197 74.192 35.25 74.607V77.914H25.153V73.792C27.127 73.335 28.607 71.571 28.607 69.46C28.607 67.919 27.819 66.559 26.626 65.759C27.457 65.054 27.996 64.015 27.996 62.843C27.996 60.724 26.272 59 24.153 59C22.034 59 20.31 60.724 20.31 62.843C20.31 64.016 20.849 65.054 21.68 65.759C20.487 66.559 19.699 67.918 19.699 69.46C19.699 71.571 21.179 73.336 23.153 73.792V77.914H15.062V74.555C16.776 74.108 18.051 72.56 18.051 70.708C18.051 69.391 17.402 68.231 16.415 67.504C17.092 66.872 17.522 65.979 17.522 64.982C17.522 63.424 16.48 62.119 15.062 61.687V56.974H35.25V59.739ZM24.153 64.686C23.137 64.686 22.31 63.859 22.31 62.843C22.31 61.827 23.137 61 24.153 61C25.169 61 25.996 61.827 25.996 62.843C25.996 63.859 25.169 64.686 24.153 64.686ZM24.153 67.006C25.506 67.006 26.607 68.107 26.607 69.46C26.607 70.813 25.506 71.915 24.153 71.915C22.8 71.915 21.699 70.813 21.699 69.46C21.699 68.107 22.8 67.006 24.153 67.006ZM14.062 63.522C14.867 63.522 15.522 64.177 15.522 64.982C15.522 65.787 14.867 66.442 14.062 66.442C13.257 66.442 12.602 65.787 12.602 64.982C12.602 64.177 13.256 63.522 14.062 63.522ZM14.062 68.72C15.159 68.72 16.051 69.612 16.051 70.708C16.051 71.804 15.159 72.697 14.062 72.697C12.965 72.697 12.073 71.804 12.073 70.708C12.073 69.612 12.965 68.72 14.062 68.72ZM7.163 2H29.041V54.975H14.062C13.51 54.975 13.062 55.422 13.062 55.975V61.688C11.644 62.12 10.602 63.425 10.602 64.983C10.602 65.98 11.032 66.873 11.709 67.505C10.722 68.232 10.073 69.392 10.073 70.709C10.073 72.561 11.348 74.109 13.062 74.556V77.915H7.164L7.163 2Z" fill="#175c3b"/>
<path d="M12.9355 22.9137C13.4875 22.9137 13.9355 22.4667 13.9355 21.9137V16.8477C13.9355 16.2947 13.4875 15.8477 12.9355 15.8477C12.3835 15.8477 11.9355 16.2947 11.9355 16.8477V21.9137C11.9355 22.4667 12.3825 22.9137 12.9355 22.9137Z" fill="#175c3b"/>
<path d="M18.1016 22.9137C18.6536 22.9137 19.1016 22.4667 19.1016 21.9137V16.8477C19.1016 16.2947 18.6536 15.8477 18.1016 15.8477C17.5496 15.8477 17.1016 16.2947 17.1016 16.8477V21.9137C17.1016 22.4667 17.5496 22.9137 18.1016 22.9137Z" fill="#175c3b"/>
<path d="M23.2695 22.9137C23.8215 22.9137 24.2695 22.4667 24.2695 21.9137V16.8477C24.2695 16.2947 23.8215 15.8477 23.2695 15.8477C22.7175 15.8477 22.2695 16.2947 22.2695 16.8477V21.9137C22.2695 22.4667 22.7165 22.9137 23.2695 22.9137Z" fill="#175c3b"/>
<path d="M12.9355 32.9254C13.4875 32.9254 13.9355 32.4784 13.9355 31.9254V26.8594C13.9355 26.3064 13.4875 25.8594 12.9355 25.8594C12.3835 25.8594 11.9355 26.3064 11.9355 26.8594V31.9254C11.9355 32.4784 12.3825 32.9254 12.9355 32.9254Z" fill="#175c3b"/>
<path d="M18.1016 32.9254C18.6536 32.9254 19.1016 32.4784 19.1016 31.9254V26.8594C19.1016 26.3064 18.6536 25.8594 18.1016 25.8594C17.5496 25.8594 17.1016 26.3064 17.1016 26.8594V31.9254C17.1016 32.4784 17.5496 32.9254 18.1016 32.9254Z" fill="#175c3b"/>
<path d="M23.2695 32.9254C23.8215 32.9254 24.2695 32.4784 24.2695 31.9254V26.8594C24.2695 26.3064 23.8215 25.8594 23.2695 25.8594C22.7175 25.8594 22.2695 26.3064 22.2695 26.8594V31.9254C22.2695 32.4784 22.7165 32.9254 23.2695 32.9254Z" fill="#175c3b"/>
<path d="M12.9355 12.898C13.4875 12.898 13.9355 12.451 13.9355 11.898V6.83203C13.9355 6.27903 13.4875 5.83203 12.9355 5.83203C12.3835 5.83203 11.9355 6.27903 11.9355 6.83203V11.898C11.9355 12.451 12.3825 12.898 12.9355 12.898Z" fill="#175c3b"/>
<path d="M18.1016 12.898C18.6536 12.898 19.1016 12.451 19.1016 11.898V6.83203C19.1016 6.27903 18.6536 5.83203 18.1016 5.83203C17.5496 5.83203 17.1016 6.27903 17.1016 6.83203V11.898C17.1016 12.451 17.5496 12.898 18.1016 12.898Z" fill="#175c3b"/>
<path d="M23.2695 12.898C23.8215 12.898 24.2695 12.451 24.2695 11.898V6.83203C24.2695 6.27903 23.8215 5.83203 23.2695 5.83203C22.7175 5.83203 22.2695 6.27903 22.2695 6.83203V11.898C22.2695 12.451 22.7165 12.898 23.2695 12.898Z" fill="#175c3b"/>
<path d="M42.2441 62.2734H51.1041C51.6561 62.2734 52.1041 61.8264 52.1041 61.2734C52.1041 60.7204 51.6561 60.2734 51.1041 60.2734H42.2441C41.6921 60.2734 41.2441 60.7204 41.2441 61.2734C41.2441 61.8264 41.6911 62.2734 42.2441 62.2734Z" fill="#175c3b"/>
<path d="M42.2441 56.8086H51.1041C51.6561 56.8086 52.1041 56.3616 52.1041 55.8086C52.1041 55.2556 51.6561 54.8086 51.1041 54.8086H42.2441C41.6921 54.8086 41.2441 55.2556 41.2441 55.8086C41.2441 56.3616 41.6911 56.8086 42.2441 56.8086Z" fill="#175c3b"/>
<path d="M42.2441 51.3438H51.1041C51.6561 51.3438 52.1041 50.8967 52.1041 50.3438C52.1041 49.7908 51.6561 49.3438 51.1041 49.3438H42.2441C41.6921 49.3438 41.2441 49.7908 41.2441 50.3438C41.2441 50.8967 41.6911 51.3438 42.2441 51.3438Z" fill="#175c3b"/>
<path d="M42.2441 45.8789H51.1041C51.6561 45.8789 52.1041 45.4319 52.1041 44.8789C52.1041 44.3259 51.6561 43.8789 51.1041 43.8789H42.2441C41.6921 43.8789 41.2441 44.3259 41.2441 44.8789C41.2441 45.4319 41.6911 45.8789 42.2441 45.8789Z" fill="#175c3b"/>
<path d="M12.9355 42.9371C13.4875 42.9371 13.9355 42.4901 13.9355 41.9371V36.8711C13.9355 36.3181 13.4875 35.8711 12.9355 35.8711C12.3835 35.8711 11.9355 36.3181 11.9355 36.8711V41.9371C11.9355 42.4891 12.3825 42.9371 12.9355 42.9371Z" fill="#175c3b"/>
<path d="M18.1016 42.9371C18.6536 42.9371 19.1016 42.4901 19.1016 41.9371V36.8711C19.1016 36.3181 18.6536 35.8711 18.1016 35.8711C17.5496 35.8711 17.1016 36.3181 17.1016 36.8711V41.9371C17.1016 42.4891 17.5496 42.9371 18.1016 42.9371Z" fill="#175c3b"/>
<path d="M23.2695 42.9371C23.8215 42.9371 24.2695 42.4901 24.2695 41.9371V36.8711C24.2695 36.3181 23.8215 35.8711 23.2695 35.8711C22.7175 35.8711 22.2695 36.3181 22.2695 36.8711V41.9371C22.2695 42.4891 22.7165 42.9371 23.2695 42.9371Z" fill="#175c3b"/>
<path d="M12.9355 52.5191C13.4875 52.5191 13.9355 52.0721 13.9355 51.5191V46.4531C13.9355 45.9001 13.4875 45.4531 12.9355 45.4531C12.3835 45.4531 11.9355 45.9001 11.9355 46.4531V51.5191C11.9355 52.0711 12.3825 52.5191 12.9355 52.5191Z" fill="#175c3b"/>
<path d="M18.1016 52.5191C18.6536 52.5191 19.1016 52.0721 19.1016 51.5191V46.4531C19.1016 45.9001 18.6536 45.4531 18.1016 45.4531C17.5496 45.4531 17.1016 45.9001 17.1016 46.4531V51.5191C17.1016 52.0711 17.5496 52.5191 18.1016 52.5191Z" fill="#175c3b"/>
<path d="M23.2695 52.5191C23.8215 52.5191 24.2695 52.0721 24.2695 51.5191V46.4531C24.2695 45.9001 23.8215 45.4531 23.2695 45.4531C22.7175 45.4531 22.2695 45.9001 22.2695 46.4531V51.5191C22.2695 52.0711 22.7165 52.5191 23.2695 52.5191Z" fill="#175c3b"/>
<path d="M62.293 43.1519C62.845 43.1519 63.293 42.7049 63.293 42.1519V37.0859C63.293 36.5329 62.845 36.0859 62.293 36.0859C61.741 36.0859 61.293 36.5329 61.293 37.0859V42.1519C61.293 42.7049 61.74 43.1519 62.293 43.1519Z" fill="#175c3b"/>
<path d="M67.8242 3.938V1C67.8242 0.447 67.3762 0 66.8242 0C66.2722 0 65.8242 0.447 65.8242 1V3.938C65.8242 4.491 66.2722 4.938 66.8242 4.938C67.3762 4.938 67.8242 4.49 67.8242 3.938Z" fill="#175c3b"/>
<path d="M71.6762 0.902893C71.1622 0.704893 70.5822 0.960892 70.3832 1.47489L69.3252 4.21489C69.1262 4.73089 69.3832 5.30989 69.8982 5.50789C70.0172 5.55389 70.1382 5.57489 70.2582 5.57489C70.6592 5.57489 71.0382 5.33189 71.1912 4.93489L72.2492 2.19489C72.4472 1.68089 72.1912 1.10189 71.6762 0.902893Z" fill="#175c3b"/>
<path d="M72.5581 7.15228C72.7491 7.32628 72.9901 7.41228 73.2301 7.41228C73.5021 7.41228 73.7731 7.30229 73.9711 7.08429L75.9451 4.91029C76.3171 4.50229 76.2861 3.86929 75.8771 3.49829C75.4681 3.12729 74.8361 3.15629 74.4641 3.56629L72.4901 5.74029C72.1191 6.14829 72.1491 6.78128 72.5581 7.15228Z" fill="#175c3b"/>
<path d="M75.7924 10.0899L78.4174 8.77286C78.9114 8.52586 79.1104 7.92386 78.8624 7.43086C78.6144 6.93786 78.0134 6.73686 77.5204 6.98586L74.8954 8.30286C74.4014 8.54986 74.2024 9.15186 74.4504 9.64486C74.6254 9.99486 74.9784 10.1969 75.3454 10.1969C75.4954 10.1959 75.6484 10.1619 75.7924 10.0899Z" fill="#175c3b"/>
<path d="M79.1394 11.2727L76.2164 11.5557C75.6664 11.6087 75.2634 12.0977 75.3174 12.6477C75.3674 13.1647 75.8023 13.5507 76.3113 13.5507C76.3433 13.5507 76.3753 13.5487 76.4083 13.5457L79.3314 13.2627C79.8814 13.2097 80.2844 12.7207 80.2304 12.1707C80.1784 11.6227 79.6944 11.2297 79.1394 11.2727Z" fill="#175c3b"/>
<path d="M78.8341 17.8202C79.2721 17.8202 79.6731 17.5312 79.7971 17.0892C79.9451 16.5572 79.6341 16.0062 79.1021 15.8582L76.2731 15.0692C75.7411 14.9182 75.1901 15.2312 75.0411 15.7632C74.8921 16.2952 75.2041 16.8462 75.7361 16.9942L78.5651 17.7832C78.6551 17.8092 78.7461 17.8202 78.8341 17.8202Z" fill="#175c3b"/>
<path d="M76.8202 21.9233C77.1252 21.9233 77.4262 21.7843 77.6232 21.5213C77.9532 21.0793 77.8622 20.4523 77.4192 20.1223L75.0642 18.3663C74.6222 18.0363 73.9952 18.1273 73.6652 18.5703C73.3352 19.0123 73.4262 19.6393 73.8692 19.9693L76.2242 21.7253C76.4032 21.8583 76.6132 21.9233 76.8202 21.9233Z" fill="#175c3b"/>
<path d="M72.6182 24.5566C72.8082 24.8596 73.1332 25.0246 73.4662 25.0246C73.6482 25.0246 73.8322 24.9746 73.9972 24.8716C74.4652 24.5776 74.6052 23.9596 74.3112 23.4926L72.7472 21.0066C72.4532 20.5376 71.8342 20.3996 71.3682 20.6926C70.9002 20.9866 70.7602 21.6046 71.0542 22.0716L72.6182 24.5566Z" fill="#175c3b"/>
<path d="M68.4611 21.8435C67.9191 21.9495 67.5651 22.4745 67.6711 23.0165L68.2341 25.8995C68.3271 26.3775 68.7461 26.7085 69.2141 26.7085C69.2771 26.7085 69.3421 26.7025 69.4071 26.6895C69.9491 26.5835 70.3031 26.0585 70.1971 25.5165L69.6341 22.6335C69.5291 22.0915 69.0061 21.7355 68.4611 21.8435Z" fill="#175c3b"/>
<path d="M64.1749 22.6809L63.6619 25.5729C63.5659 26.1169 63.9289 26.6359 64.4719 26.7319C64.5309 26.7429 64.5899 26.7479 64.6479 26.7479C65.1239 26.7479 65.5459 26.4069 65.6319 25.9229L66.1449 23.0309C66.2409 22.4869 65.8779 21.9679 65.3349 21.8719C64.7889 21.7719 64.2709 22.1379 64.1749 22.6809Z" fill="#175c3b"/>
<path d="M59.8538 24.9933C60.0158 25.0913 60.1938 25.1383 60.3708 25.1383C60.7088 25.1383 61.0398 24.9663 61.2278 24.6563L62.7478 22.1423C63.0338 21.6693 62.8818 21.0543 62.4098 20.7693C61.9378 20.4843 61.3228 20.6343 61.0358 21.1073L59.5158 23.6213C59.2298 24.0933 59.3808 24.7083 59.8538 24.9933Z" fill="#175c3b"/>
<path d="M56.9602 22.0975C57.1742 22.0975 57.3892 22.0295 57.5712 21.8885L59.8952 20.0915C60.3322 19.7535 60.4122 19.1255 60.0742 18.6895C59.7362 18.2515 59.1082 18.1725 58.6712 18.5095L56.3472 20.3065C55.9102 20.6445 55.8302 21.2725 56.1682 21.7085C56.3652 21.9635 56.6612 22.0975 56.9602 22.0975Z" fill="#175c3b"/>
<path d="M54.875 18.0308C54.97 18.0308 55.066 18.0168 55.161 17.9888L57.976 17.1498C58.505 16.9928 58.807 16.4358 58.649 15.9068C58.491 15.3768 57.932 15.0748 57.405 15.2338L54.59 16.0728C54.061 16.2298 53.759 16.7868 53.917 17.3158C54.046 17.7508 54.444 18.0308 54.875 18.0308Z" fill="#175c3b"/>
<path d="M53.3957 12.4089C53.3527 12.9599 53.7637 13.4409 54.3137 13.4849L57.2417 13.7159C57.2687 13.7179 57.2947 13.7189 57.3217 13.7189C57.8387 13.7189 58.2767 13.3219 58.3177 12.7979C58.3607 12.2469 57.9497 11.7659 57.3997 11.7219L54.4717 11.4909C53.9207 11.4519 53.4397 11.8589 53.3957 12.4089Z" fill="#175c3b"/>
<path d="M54.6807 7.6411C54.4417 8.1391 54.6517 8.7361 55.1497 8.9751L57.7977 10.2461C57.9367 10.3131 58.0847 10.3451 58.2297 10.3451C58.6017 10.3451 58.9597 10.1361 59.1317 9.7781C59.3707 9.2801 59.1607 8.6831 58.6627 8.4441L56.0147 7.1731C55.5217 6.9341 54.9197 7.1431 54.6807 7.6411Z" fill="#175c3b"/>
<path d="M59.0101 3.70157C58.6321 3.29957 57.9981 3.27957 57.5961 3.65857C57.1941 4.03657 57.1741 4.67057 57.5531 5.07257L59.5651 7.21257C59.7621 7.42157 60.0271 7.52657 60.2941 7.52657C60.5401 7.52657 60.7861 7.43657 60.9791 7.25557C61.3811 6.87757 61.4011 6.24357 61.0221 5.84157L59.0101 3.70157Z" fill="#175c3b"/>
<path d="M63.2339 5.63975C63.3589 5.63975 63.4869 5.61675 63.6099 5.56675C64.1209 5.35875 64.3669 4.77475 64.1589 4.26275L63.0529 1.54175C62.8449 1.03075 62.2609 0.783746 61.7499 0.991746C61.2389 1.19975 60.9929 1.78375 61.2009 2.29575L62.3069 5.01675C62.4649 5.40375 62.8389 5.63975 63.2339 5.63975Z" fill="#175c3b"/>
<path d="M67.457 43.1519C68.009 43.1519 68.457 42.7049 68.457 42.1519V37.0859C68.457 36.5329 68.009 36.0859 67.457 36.0859C66.905 36.0859 66.457 36.5329 66.457 37.0859V42.1519C66.457 42.7049 66.905 43.1519 67.457 43.1519Z" fill="#175c3b"/>
<path d="M62.293 53.1676C62.845 53.1676 63.293 52.7206 63.293 52.1676V47.1016C63.293 46.5486 62.845 46.1016 62.293 46.1016C61.741 46.1016 61.293 46.5486 61.293 47.1016V52.1676C61.293 52.7206 61.74 53.1676 62.293 53.1676Z" fill="#175c3b"/>
<path d="M67.457 53.1676C68.009 53.1676 68.457 52.7206 68.457 52.1676V47.1016C68.457 46.5486 68.009 46.1016 67.457 46.1016C66.905 46.1016 66.457 46.5486 66.457 47.1016V52.1676C66.457 52.7206 66.905 53.1676 67.457 53.1676Z" fill="#175c3b"/>
<path d="M62.293 62.7457C62.845 62.7457 63.293 62.2987 63.293 61.7457V56.6797C63.293 56.1267 62.845 55.6797 62.293 55.6797C61.741 55.6797 61.293 56.1267 61.293 56.6797V61.7457C61.293 62.2987 61.74 62.7457 62.293 62.7457Z" fill="#175c3b"/>
<path d="M67.457 62.7457C68.009 62.7457 68.457 62.2987 68.457 61.7457V56.6797C68.457 56.1267 68.009 55.6797 67.457 55.6797C66.905 55.6797 66.457 56.1267 66.457 56.6797V61.7457C66.457 62.2987 66.905 62.7457 67.457 62.7457Z" fill="#175c3b"/>
</svg>
