<svg width="74" height="95" viewBox="0 0 74 95" fill="none" xmlns="http://www.w3.org/2000/svg">
<path d="M73.2751 50.8896C73.7121 50.7131 74 50.29 74 49.8171V7.49202C74 7.1956 73.886 6.90823 73.6816 6.69326C73.3767 6.37421 66.0621 -1.13591 51.8043 1.72197C46.2071 2.8443 42.5972 5.57772 39.413 7.99209C35.6665 10.8319 32.4303 13.2847 26.5938 13.2847C17.0615 13.2847 10.7399 8.28936 9.25 6.98148V4.63415C9.25 2.07948 7.17575 0 4.625 0C2.07425 0 0 2.07948 0 4.63415V93.8415C0 94.4818 0.517151 95 1.15625 95H8.09375C8.73285 95 9.25 94.4818 9.25 93.8415V52.2792C12.1587 54.4323 18.1692 57.9268 26.5938 57.9268C33.2061 57.9268 37.0711 54.9988 40.8086 52.1658C43.9409 49.7922 47.1793 47.3371 52.2582 46.3188C65.2084 43.7257 71.7361 50.333 72.0082 50.6181C72.3334 50.9575 72.8358 51.0661 73.2751 50.8896ZM6.9375 92.6829H2.3125V4.63415C2.3125 3.35568 3.35019 2.31707 4.625 2.31707C5.89981 2.31707 6.9375 3.35568 6.9375 4.63415V92.6829ZM71.6875 47.3801C68.6038 45.2418 61.9689 42.0105 51.8043 44.047C46.2071 45.1693 42.5972 47.9028 39.413 50.3171C35.6665 53.1569 32.4303 55.6098 26.5938 55.6098C17.0615 55.6098 10.7399 50.6144 9.25 49.3065V9.95419C12.1587 12.1072 18.1692 15.6018 26.5938 15.6018C33.2061 15.6018 37.0711 12.6738 40.8086 9.84077C43.9409 7.46713 47.1793 5.01203 52.2582 3.99378C63.7778 1.69255 70.2117 6.65932 71.6875 7.98757V47.3801Z" fill="#175c3b"/>
</svg>
