<svg width="112" height="112" viewBox="0 0 112 112" fill="none" xmlns="http://www.w3.org/2000/svg">
<path d="M55.8 0C44.7638 0 33.9755 3.27261 24.7992 9.404C15.6229 15.5354 8.47092 24.2501 4.24755 34.4463C0.0241772 44.6424 -1.08085 55.8619 1.07221 66.686C3.22526 77.5102 8.5397 87.4528 16.3435 95.2566C24.1472 103.06 34.0898 108.375 44.914 110.528C55.7381 112.681 66.9576 111.576 77.1538 107.352C87.3499 103.129 96.0646 95.9771 102.196 86.8008C108.327 77.6245 111.6 66.8362 111.6 55.8C111.562 41.0126 105.671 26.8417 95.2146 16.3854C84.7583 5.92907 70.5874 0.0379653 55.8 0ZM55.8 108.868C45.3388 108.867 35.1123 105.767 26.4122 99.9582C17.7121 94.1492 10.9287 85.8921 6.9188 76.2299C2.90894 66.5677 1.85251 55.9339 3.88295 45.6717C5.9134 35.4094 10.9396 25.9791 18.3268 18.5719C25.7139 11.1647 35.1305 6.1129 45.3872 4.05461C55.6439 1.99633 66.2806 3.0239 75.9536 7.00752C85.6266 10.9911 93.9021 17.7521 99.7347 26.4364C105.567 35.1208 108.695 45.3388 108.724 55.8C108.686 69.8246 103.098 83.2639 93.1808 93.1808C83.2639 103.098 69.8246 108.686 55.8 108.724V108.868Z" fill="#175c3b"/>
<path d="M77.8049 44.7269C79.4261 44.7269 81.011 44.2461 82.3591 43.3454C83.7071 42.4446 84.7578 41.1644 85.3783 39.6665C85.9987 38.1686 86.1611 36.5204 85.8448 34.9302C85.5285 33.3401 84.7477 31.8794 83.6013 30.733C82.4549 29.5866 80.9942 28.8058 79.4041 28.4895C77.8139 28.1732 76.1657 28.3356 74.6678 28.956C73.1699 29.5765 71.8897 30.6272 70.9889 31.9752C70.0882 33.3233 69.6074 34.9082 69.6074 36.5295C69.6074 37.606 69.8195 38.6719 70.2314 39.6665C70.6434 40.661 71.2472 41.5647 72.0084 42.3259C72.7696 43.0871 73.6733 43.6909 74.6678 44.1029C75.6624 44.5148 76.7283 44.7269 77.8049 44.7269ZM77.8049 31.2083C78.8573 31.2083 79.886 31.5204 80.7611 32.1051C81.6362 32.6898 82.3182 33.5208 82.7209 34.4931C83.1237 35.4655 83.2291 36.5354 83.0237 37.5676C82.8184 38.5998 82.3116 39.5479 81.5675 40.2921C80.8233 41.0362 79.8751 41.543 78.8429 41.7483C77.8108 41.9537 76.7408 41.8483 75.7685 41.4455C74.7962 41.0428 73.9652 40.3608 73.3805 39.4857C72.7958 38.6107 72.4837 37.5819 72.4837 36.5295C72.4837 35.1182 73.0443 33.7648 74.0422 32.7668C75.0401 31.7689 76.3936 31.2083 77.8049 31.2083Z" fill="#175c3b"/>
<path d="M33.797 44.7269C35.4183 44.7269 37.0032 44.2461 38.3513 43.3454C39.6993 42.4446 40.75 41.1644 41.3705 39.6665C41.9909 38.1686 42.1532 36.5204 41.8369 34.9302C41.5206 33.3401 40.7399 31.8794 39.5935 30.733C38.4471 29.5866 36.9864 28.8058 35.3963 28.4895C33.8061 28.1732 32.1579 28.3356 30.66 28.956C29.1621 29.5765 27.8819 30.6272 26.9811 31.9752C26.0804 33.3233 25.5996 34.9082 25.5996 36.5295C25.5996 38.7035 26.4633 40.7886 28.0006 42.3259C29.5379 43.8632 31.6229 44.7269 33.797 44.7269ZM33.797 31.2083C34.8495 31.2083 35.8782 31.5204 36.7533 32.1051C37.6284 32.6898 38.3104 33.5208 38.7131 34.4931C39.1159 35.4655 39.2212 36.5354 39.0159 37.5676C38.8106 38.5998 38.3038 39.5479 37.5596 40.2921C36.8155 41.0362 35.8673 41.543 34.8351 41.7483C33.8029 41.9537 32.733 41.8483 31.7607 41.4455C30.7884 41.0428 29.9574 40.3608 29.3727 39.4857C28.788 38.6107 28.4759 37.5819 28.4759 36.5295C28.4759 35.1182 29.0365 33.7648 30.0344 32.7668C31.0323 31.7689 32.3858 31.2083 33.797 31.2083Z" fill="#175c3b"/>
<path d="M72.4828 64.8607H81.8308C81.3414 71.4487 78.379 77.6081 73.5377 82.103C68.6965 86.598 62.3347 89.0961 55.7284 89.0961C49.1222 89.0961 42.7604 86.598 37.9191 82.103C33.0779 77.6081 30.1155 71.4487 29.6261 64.8607H38.9741V61.9844H19.2715V64.8607H26.7498C27.2667 72.1935 30.5444 79.0578 35.922 84.0697C41.2996 89.0816 48.3774 91.8685 55.7284 91.8685C63.0795 91.8685 70.1572 89.0816 75.5349 84.0697C80.9125 79.0578 84.1901 72.1935 84.707 64.8607H92.1854V61.9844H72.4828V64.8607Z" fill="#175c3b"/>
</svg>
